<?xml version="1.0" standalone="no"?><!DOCTYPE svg PUBLIC "-//W3C//DTD SVG 1.1//EN" "http://www.w3.org/Graphics/SVG/1.1/DTD/svg11.dtd"><svg t="1607859047594" class="icon" viewBox="0 0 1024 1024" version="1.1" xmlns="http://www.w3.org/2000/svg" p-id="4174" xmlns:xlink="http://www.w3.org/1999/xlink" width="16" height="16"><defs><style type="text/css"></style></defs><path d="M512.0181274414062 140.7236328125c-125.93957519531247 0-228.48156738281247 102.50326538085938-228.48156738281247 228.48074340820312 0 125.90167236328126 102.46701049804688 228.44448852539062 228.48156738281247 228.44448852539062 125.97665405273438 0 228.517822265625-102.54199218749999 228.517822265625-228.44448852539062 0-125.97747802734375-102.54116821289061-228.48074340820312-228.517822265625-228.48074340820312z" fill="#1296db" p-id="4175"></path><path d="M688.11962890625 592.4355773925781c-48.68206787109375 38.48208618164063-109.30682373046875 62.32461547851563-176.10150146484375 62.32461547851563-66.79550170898438 0-127.38153076171872-23.915863037109375-176.17565917968753-62.32461547851563C243.4666748046875 651.2484130859374 179.14804077148432 754.5303344726562 170.31338500976562 874.1483764648438c32.343475341796875 4.396728515625001 89.89892578124999 9.127990722656248 172.03436279296875 9.127990722656248h339.1916198730469c82.17333984375 0 139.7650451660156-4.731262207031249 172.14724731445312-9.127990722656248-8.762145996093748-119.69384765625-73.07995605468749-222.89996337890622-165.5669860839844-281.71279907226557z" fill="#1296db" p-id="4176"></path></svg>